<svg xmlns="http://www.w3.org/2000/svg" viewBox="0 0 1024 1024" width="1024" height="1024"><defs></defs><g transform="translate(0.0 0.0) scale(1.0)"><clipPath id="mask"><path d="M512,0 A512,512 0 1 1 511.9,0 Z"/></clipPath><g clip-path="url(#mask)"><rect width="1024" height="1024" fill="#1B1B2F"/><rect x="150" y="170" width="8" height="8" fill="#fff" opacity=".5"/><rect x="860" y="240" width="8" height="8" fill="#fff" opacity=".5"/><rect x="800" y="830" width="8" height="8" fill="#fff" opacity=".5"/><rect x="180" y="820" width="8" height="8" fill="#fff" opacity=".5"/><rect x="700" y="150" width="8" height="8" fill="#fff" opacity=".5"/><rect x="452" y="212" width="60" height="60" fill="#FF8A00"/><rect x="512" y="212" width="60" height="60" fill="#FF8A00"/><rect x="452" y="272" width="60" height="60" fill="#FF8A00"/><rect x="512" y="272" width="60" height="60" fill="#FF8A00"/><rect x="392" y="332" width="60" height="60" fill="#FF8A00"/><rect x="452" y="332" width="60" height="60" fill="#FF8A00"/><rect x="512" y="332" width="60" height="60" fill="#FF8A00"/><rect x="572" y="332" width="60" height="60" fill="#FF8A00"/><rect x="392" y="392" width="60" height="60" fill="#fff"/><rect x="452" y="392" width="60" height="60" fill="#fff"/><rect x="512" y="392" width="60" height="60" fill="#fff"/><rect x="572" y="392" width="60" height="60" fill="#fff"/><rect x="332" y="452" width="60" height="60" fill="#FF8A00"/><rect x="392" y="452" width="60" height="60" fill="#FF8A00"/><rect x="452" y="452" width="60" height="60" fill="#FF8A00"/><rect x="512" y="452" width="60" height="60" fill="#FF8A00"/><rect x="572" y="452" width="60" height="60" fill="#FF8A00"/><rect x="632" y="452" width="60" height="60" fill="#FF8A00"/><rect x="332" y="512" width="60" height="60" fill="#FF8A00"/><rect x="392" y="512" width="60" height="60" fill="#FF8A00"/><rect x="452" y="512" width="60" height="60" fill="#FF8A00"/><rect x="512" y="512" width="60" height="60" fill="#FF8A00"/><rect x="572" y="512" width="60" height="60" fill="#FF8A00"/><rect x="632" y="512" width="60" height="60" fill="#FF8A00"/><rect x="272" y="572" width="60" height="60" fill="#fff"/><rect x="332" y="572" width="60" height="60" fill="#fff"/><rect x="392" y="572" width="60" height="60" fill="#fff"/><rect x="452" y="572" width="60" height="60" fill="#fff"/><rect x="512" y="572" width="60" height="60" fill="#fff"/><rect x="572" y="572" width="60" height="60" fill="#fff"/><rect x="632" y="572" width="60" height="60" fill="#fff"/><rect x="692" y="572" width="60" height="60" fill="#fff"/><rect x="272" y="632" width="60" height="60" fill="#FF8A00"/><rect x="332" y="632" width="60" height="60" fill="#FF8A00"/><rect x="392" y="632" width="60" height="60" fill="#FF8A00"/><rect x="452" y="632" width="60" height="60" fill="#FF8A00"/><rect x="512" y="632" width="60" height="60" fill="#FF8A00"/><rect x="572" y="632" width="60" height="60" fill="#FF8A00"/><rect x="632" y="632" width="60" height="60" fill="#FF8A00"/><rect x="692" y="632" width="60" height="60" fill="#FF8A00"/><rect x="212" y="692" width="60" height="60" fill="#FF8A00"/><rect x="272" y="692" width="60" height="60" fill="#FF8A00"/><rect x="332" y="692" width="60" height="60" fill="#FF8A00"/><rect x="392" y="692" width="60" height="60" fill="#FF8A00"/><rect x="452" y="692" width="60" height="60" fill="#FF8A00"/><rect x="512" y="692" width="60" height="60" fill="#FF8A00"/><rect x="572" y="692" width="60" height="60" fill="#FF8A00"/><rect x="632" y="692" width="60" height="60" fill="#FF8A00"/><rect x="692" y="692" width="60" height="60" fill="#FF8A00"/><rect x="752" y="692" width="60" height="60" fill="#FF8A00"/><rect x="212" y="752" width="60" height="60" fill="#D84A00"/><rect x="272" y="752" width="60" height="60" fill="#D84A00"/><rect x="332" y="752" width="60" height="60" fill="#D84A00"/><rect x="392" y="752" width="60" height="60" fill="#D84A00"/><rect x="452" y="752" width="60" height="60" fill="#D84A00"/><rect x="512" y="752" width="60" height="60" fill="#D84A00"/><rect x="572" y="752" width="60" height="60" fill="#D84A00"/><rect x="632" y="752" width="60" height="60" fill="#D84A00"/><rect x="692" y="752" width="60" height="60" fill="#D84A00"/><rect x="752" y="752" width="60" height="60" fill="#D84A00"/></g><path d="M512,0 A512,512 0 1 1 511.9,0 Z" fill="none" stroke="#fff" stroke-opacity=".18" stroke-width="6"/></g></svg>