<svg xmlns="http://www.w3.org/2000/svg" viewBox="0 0 1024 1024" width="1024" height="1024"><defs></defs><g transform="translate(0.0 0.0) scale(1.0)"><clipPath id="mask"><path d="M512,0 A512,512 0 1 1 511.9,0 Z"/></clipPath><g clip-path="url(#mask)"><radialGradient id="b17" cx="0.5" cy="0.35" r="0.8"><stop offset="0" stop-color="#FAFAFA"/><stop offset="1" stop-color="#CFCFCF"/></radialGradient><rect width="1024" height="1024" fill="url(#b17)"/><filter id="bl17"><feGaussianBlur stdDeviation="20"/></filter><ellipse cx="540" cy="770" rx="280" ry="36" fill="#000" opacity=".35" filter="url(#bl17)"/><clipPath id="cc17"><path d="M488,264 Q512,240 536,264 L690,700 L334,700 Z"/></clipPath><g fill="#E35A00"><rect x="277.0" y="690" width="470" height="78" rx="26"/></g><path d="M488,264 Q512,240 536,264 L690,700 L334,700 Z" fill="#FF7A00"/><g clip-path="url(#cc17)" fill="#FAFAFA"><rect x="0" y="395" width="1024" height="60"/><rect x="0" y="545" width="1024" height="65"/></g><linearGradient id="sh17" x1="0" x2="1"><stop offset="0" stop-color="#000" stop-opacity=".22"/><stop offset=".38" stop-color="#fff" stop-opacity=".18"/><stop offset=".55" stop-color="#fff" stop-opacity="0"/><stop offset="1" stop-color="#000" stop-opacity=".28"/></linearGradient><path d="M488,264 Q512,240 536,264 L690,700 L334,700 Z" fill="url(#sh17)"/><linearGradient id="gl17" x1="0" y1="0" x2="0" y2="1"><stop offset="0" stop-color="#fff" stop-opacity=".75"/><stop offset="1" stop-color="#fff" stop-opacity="0"/></linearGradient><path d="M478,290 Q500,262 512,262 L470,520 L430,520 Z" fill="url(#gl17)" opacity=".7"/></g><path d="M512,0 A512,512 0 1 1 511.9,0 Z" fill="none" stroke="#fff" stroke-opacity=".18" stroke-width="6"/></g></svg>