<svg xmlns="http://www.w3.org/2000/svg" viewBox="0 0 1024 1024" width="1024" height="1024"><defs></defs><g transform="translate(0.0 0.0) scale(1.0)"><clipPath id="mask"><path d="M512,0 A512,512 0 1 1 511.9,0 Z"/></clipPath><g clip-path="url(#mask)"><linearGradient id="b22" x1="0" y1="0" x2="0" y2="1"><stop offset="0" stop-color="#FFF7EF"/><stop offset="1" stop-color="#FFE2C6"/></linearGradient><rect width="1024" height="1024" fill="url(#b22)"/><clipPath id="cc22"><path d="M492,304 Q512,280 532,304 L662,680 L362,680 Z"/></clipPath><g fill="#D84A00"><rect x="312.0" y="670" width="400" height="64" rx="22"/></g><path d="M492,304 Q512,280 532,304 L662,680 L362,680 Z" fill="#FF8A00"/><g clip-path="url(#cc22)" fill="#fff"><rect x="0" y="420" width="1024" height="50"/><rect x="0" y="560" width="1024" height="50"/></g><linearGradient id="sh22" x1="0" x2="1"><stop offset="0" stop-color="#000" stop-opacity=".22"/><stop offset=".38" stop-color="#fff" stop-opacity=".18"/><stop offset=".55" stop-color="#fff" stop-opacity="0"/><stop offset="1" stop-color="#000" stop-opacity=".28"/></linearGradient><path d="M492,304 Q512,280 532,304 L662,680 L362,680 Z" fill="url(#sh22)"/><g fill="none" stroke="#FF7A00" stroke-width="34" stroke-linecap="round"><path d="M720,380 Q770,480 720,580"/><path d="M790,320 Q870,480 790,640" opacity=".6"/><path d="M304,380 Q254,480 304,580"/><path d="M234,320 Q154,480 234,640" opacity=".6"/></g></g><path d="M512,0 A512,512 0 1 1 511.9,0 Z" fill="none" stroke="#fff" stroke-opacity=".18" stroke-width="6"/></g></svg>