<svg xmlns="http://www.w3.org/2000/svg" viewBox="0 0 1024 1024" width="1024" height="1024"><defs></defs><g transform="translate(0.0 0.0) scale(1.0)"><clipPath id="mask"><path d="M512,0 A512,512 0 1 1 511.9,0 Z"/></clipPath><g clip-path="url(#mask)"><rect width="1024" height="1024" fill="#FF5E00"/><path d="M534,250 L1100,816 L1100,1100 L724,1100 L724,768 L690,700 Z" fill="#000" opacity=".16"/><clipPath id="cc38"><path d="M488,264 Q512,240 536,264 L690,700 L334,700 Z"/></clipPath><g fill="#fff"><rect x="277.0" y="690" width="470" height="78" rx="26"/></g><path d="M488,264 Q512,240 536,264 L690,700 L334,700 Z" fill="#fff"/><g clip-path="url(#cc38)" fill="#FF5E00"><rect x="0" y="420" width="1024" height="50"/><rect x="0" y="560" width="1024" height="55"/></g></g><path d="M512,0 A512,512 0 1 1 511.9,0 Z" fill="none" stroke="#fff" stroke-opacity=".18" stroke-width="6"/></g></svg>