<svg xmlns="http://www.w3.org/2000/svg" viewBox="0 0 1024 1024" width="1024" height="1024"><defs></defs><g transform="translate(0.0 0.0) scale(1.0)"><clipPath id="mask"><path d="M180,100 H844 A80,80 0 0 1 924,180 V844 A80,80 0 0 1 844,924 H180 A80,80 0 0 1 100,844 V180 A80,80 0 0 1 180,100 Z"/></clipPath><filter id="macsh" x="-20%" y="-20%" width="140%" height="140%"><feDropShadow dx="0" dy="12" stdDeviation="14" flood-color="#000" flood-opacity=".3"/></filter><path d="M180,100 H844 A80,80 0 0 1 924,180 V844 A80,80 0 0 1 844,924 H180 A80,80 0 0 1 100,844 V180 A80,80 0 0 1 180,100 Z" fill="#000" filter="url(#macsh)"/><g clip-path="url(#mask)"><linearGradient id="b10" x1="0" y1="0" x2="0" y2="1"><stop offset="0" stop-color="#FF9A1F"/><stop offset="1" stop-color="#FF6200"/></linearGradient><rect width="1024" height="1024" fill="url(#b10)"/><g fill="none" stroke="#fff" stroke-width="44" stroke-linejoin="round" stroke-linecap="round"><path d="M488,284 Q512,260 536,284 L682,690 L342,690 Z"/><path d="M300,720 H724"/><path d="M430,450 H594"/><path d="M395,570 H629"/></g></g><path d="M180,100 H844 A80,80 0 0 1 924,180 V844 A80,80 0 0 1 844,924 H180 A80,80 0 0 1 100,844 V180 A80,80 0 0 1 180,100 Z" fill="none" stroke="#fff" stroke-opacity=".18" stroke-width="6"/></g></svg>