<svg xmlns="http://www.w3.org/2000/svg" viewBox="0 0 1024 1024" width="1024" height="1024"><defs></defs><linearGradient id="b72" x1="0" y1="0" x2="0" y2="1"><stop offset="0" stop-color="#00A859"/><stop offset="1" stop-color="#006B3A"/></linearGradient><rect width="1024" height="1024" fill="url(#b72)"/><ellipse cx="512" cy="330" rx="60" ry="220" fill="#FFDF00" transform="rotate(-50 512 620)" opacity=".9"/><ellipse cx="512" cy="330" rx="60" ry="220" fill="#3E4095" transform="rotate(-25 512 620)" opacity=".9"/><ellipse cx="512" cy="330" rx="60" ry="220" fill="#FFDF00" transform="rotate(0 512 620)" opacity=".9"/><ellipse cx="512" cy="330" rx="60" ry="220" fill="#3E4095" transform="rotate(25 512 620)" opacity=".9"/><ellipse cx="512" cy="330" rx="60" ry="220" fill="#FFDF00" transform="rotate(50 512 620)" opacity=".9"/><rect x="135" y="860" width="19" height="9" rx="3" fill="#fff" transform="rotate(88 135 860)"/><rect x="775" y="617" width="19" height="9" rx="3" fill="#FF4F8B" transform="rotate(78 775 617)"/><rect x="817" y="794" width="20" height="9" rx="3" fill="#fff" transform="rotate(179 817 794)"/><rect x="771" y="411" width="13" height="6" rx="3" fill="#3E4095" transform="rotate(36 771 411)"/><rect x="708" y="87" width="21" height="9" rx="3" fill="#fff" transform="rotate(116 708 87)"/><rect x="888" y="73" width="17" height="8" rx="3" fill="#FFDF00" transform="rotate(75 888 73)"/><rect x="153" y="577" width="15" height="7" rx="3" fill="#FFDF00" transform="rotate(106 153 577)"/><rect x="964" y="320" width="14" height="6" rx="3" fill="#FF4F8B" transform="rotate(94 964 320)"/><rect x="285" y="442" width="23" height="10" rx="3" fill="#3E4095" transform="rotate(162 285 442)"/><rect x="314" y="418" width="19" height="9" rx="3" fill="#3E4095" transform="rotate(178 314 418)"/><rect x="249" y="367" width="16" height="7" rx="3" fill="#FF4F8B" transform="rotate(39 249 367)"/><rect x="524" y="955" width="13" height="6" rx="3" fill="#FFDF00" transform="rotate(14 524 955)"/><rect x="397" y="488" width="10" height="4" rx="3" fill="#3E4095" transform="rotate(18 397 488)"/><rect x="930" y="210" width="14" height="6" rx="3" fill="#FFDF00" transform="rotate(113 930 210)"/><rect x="560" y="102" width="23" height="10" rx="3" fill="#3E4095" transform="rotate(141 560 102)"/><rect x="955" y="461" width="13" height="6" rx="3" fill="#FFDF00" transform="rotate(127 955 461)"/><rect x="632" y="778" width="11" height="5" rx="3" fill="#FF4F8B" transform="rotate(116 632 778)"/><rect x="401" y="551" width="10" height="4" rx="3" fill="#FFDF00" transform="rotate(77 401 551)"/><rect x="724" y="377" width="21" height="9" rx="3" fill="#FF4F8B" transform="rotate(60 724 377)"/><rect x="906" y="255" width="22" height="10" rx="3" fill="#FF4F8B" transform="rotate(37 906 255)"/><rect x="859" y="162" width="16" height="7" rx="3" fill="#FFDF00" transform="rotate(13 859 162)"/><rect x="717" y="568" width="13" height="6" rx="3" fill="#FFDF00" transform="rotate(81 717 568)"/><rect x="265" y="699" width="23" height="10" rx="3" fill="#fff" transform="rotate(31 265 699)"/><rect x="390" y="909" width="17" height="8" rx="3" fill="#fff" transform="rotate(90 390 909)"/><rect x="667" y="728" width="22" height="10" rx="3" fill="#fff" transform="rotate(1 667 728)"/><rect x="603" y="695" width="17" height="8" rx="3" fill="#fff" transform="rotate(97 603 695)"/><rect x="960" y="164" width="19" height="9" rx="3" fill="#FF4F8B" transform="rotate(179 960 164)"/><rect x="779" y="367" width="17" height="8" rx="3" fill="#fff" transform="rotate(70 779 367)"/><rect x="89" y="937" width="23" height="10" rx="3" fill="#3E4095" transform="rotate(42 89 937)"/><rect x="594" y="587" width="16" height="7" rx="3" fill="#3E4095" transform="rotate(7 594 587)"/><rect x="421" y="908" width="11" height="5" rx="3" fill="#fff" transform="rotate(130 421 908)"/><rect x="637" y="495" width="15" height="7" rx="3" fill="#3E4095" transform="rotate(9 637 495)"/><rect x="606" y="822" width="13" height="6" rx="3" fill="#FF4F8B" transform="rotate(7 606 822)"/><rect x="793" y="423" width="20" height="9" rx="3" fill="#FFDF00" transform="rotate(33 793 423)"/><rect x="169" y="483" width="10" height="4" rx="3" fill="#FFDF00" transform="rotate(8 169 483)"/><rect x="405" y="686" width="24" height="11" rx="3" fill="#FF4F8B" transform="rotate(90 405 686)"/><rect x="796" y="71" width="19" height="9" rx="3" fill="#FFDF00" transform="rotate(135 796 71)"/><rect x="254" y="738" width="11" height="5" rx="3" fill="#fff" transform="rotate(71 254 738)"/><rect x="948" y="453" width="11" height="5" rx="3" fill="#FFDF00" transform="rotate(77 948 453)"/><rect x="301" y="896" width="12" height="5" rx="3" fill="#FFDF00" transform="rotate(159 301 896)"/><rect x="171" y="211" width="15" height="7" rx="3" fill="#FFDF00" transform="rotate(168 171 211)"/><rect x="621" y="399" width="24" height="11" rx="3" fill="#FFDF00" transform="rotate(140 621 399)"/><rect x="755" y="205" width="17" height="8" rx="3" fill="#FFDF00" transform="rotate(160 755 205)"/><rect x="310" y="703" width="21" height="9" rx="3" fill="#3E4095" transform="rotate(28 310 703)"/><rect x="491" y="904" width="11" height="5" rx="3" fill="#3E4095" transform="rotate(143 491 904)"/><rect x="771" y="658" width="22" height="10" rx="3" fill="#FF4F8B" transform="rotate(157 771 658)"/><rect x="498" y="359" width="15" height="7" rx="3" fill="#fff" transform="rotate(41 498 359)"/><rect x="494" y="187" width="11" height="5" rx="3" fill="#FF4F8B" transform="rotate(132 494 187)"/><rect x="562" y="335" width="12" height="5" rx="3" fill="#FF4F8B" transform="rotate(134 562 335)"/><rect x="795" y="760" width="18" height="8" rx="3" fill="#3E4095" transform="rotate(179 795 760)"/></svg>