<svg xmlns="http://www.w3.org/2000/svg" viewBox="0 0 1024 1024" width="1024" height="1024"><defs></defs><path d="M512,240 L440,430" stroke="#FFB870" stroke-width="5" opacity=".7"/><path d="M512,240 L584,430" stroke="#FFB870" stroke-width="5" opacity=".7"/><path d="M440,430 L584,430" stroke="#FFB870" stroke-width="5" opacity=".7"/><path d="M440,430 L400,560" stroke="#FFB870" stroke-width="5" opacity=".7"/><path d="M584,430 L624,560" stroke="#FFB870" stroke-width="5" opacity=".7"/><path d="M400,560 L624,560" stroke="#FFB870" stroke-width="5" opacity=".7"/><path d="M400,560 L350,700" stroke="#FFB870" stroke-width="5" opacity=".7"/><path d="M624,560 L674,700" stroke="#FFB870" stroke-width="5" opacity=".7"/><path d="M350,700 L512,700" stroke="#FFB870" stroke-width="5" opacity=".7"/><path d="M512,700 L674,700" stroke="#FFB870" stroke-width="5" opacity=".7"/><circle cx="512" cy="240" r="16" fill="#FFD9A8"/><circle cx="512" cy="240" r="34" fill="#FF8A00" opacity=".25"/><circle cx="440" cy="430" r="16" fill="#FFD9A8"/><circle cx="440" cy="430" r="34" fill="#FF8A00" opacity=".25"/><circle cx="584" cy="430" r="16" fill="#FFD9A8"/><circle cx="584" cy="430" r="34" fill="#FF8A00" opacity=".25"/><circle cx="400" cy="560" r="16" fill="#FFD9A8"/><circle cx="400" cy="560" r="34" fill="#FF8A00" opacity=".25"/><circle cx="624" cy="560" r="16" fill="#FFD9A8"/><circle cx="624" cy="560" r="34" fill="#FF8A00" opacity=".25"/><circle cx="350" cy="700" r="16" fill="#FFD9A8"/><circle cx="350" cy="700" r="34" fill="#FF8A00" opacity=".25"/><circle cx="512" cy="700" r="16" fill="#FFD9A8"/><circle cx="512" cy="700" r="34" fill="#FF8A00" opacity=".25"/><circle cx="674" cy="700" r="16" fill="#FFD9A8"/><circle cx="674" cy="700" r="34" fill="#FF8A00" opacity=".25"/></svg>