<svg xmlns="http://www.w3.org/2000/svg" viewBox="0 0 1024 1024" width="1024" height="1024"><defs></defs><g transform="translate(0.0 0.0) scale(1.0)"><clipPath id="mask"><path d="M160,120 H864 A40,40 0 0 1 904,160 V864 A40,40 0 0 1 864,904 H160 A40,40 0 0 1 120,864 V160 A40,40 0 0 1 160,120 Z"/></clipPath><filter id="macsh" x="-20%" y="-20%" width="140%" height="140%"><feDropShadow dx="0" dy="12" stdDeviation="14" flood-color="#000" flood-opacity=".3"/></filter><path d="M160,120 H864 A40,40 0 0 1 904,160 V864 A40,40 0 0 1 864,904 H160 A40,40 0 0 1 120,864 V160 A40,40 0 0 1 160,120 Z" fill="#000" filter="url(#macsh)"/><g clip-path="url(#mask)"><linearGradient id="b3" x1="0" y1="0" x2="0" y2="1"><stop offset="0" stop-color="#3A3D44"/><stop offset="1" stop-color="#15161A"/></linearGradient><rect width="1024" height="1024" fill="url(#b3)"/><filter id="ds3" x="-30%" y="-30%" width="160%" height="160%"><feDropShadow dx="0" dy="16" stdDeviation="20" flood-color="#000" flood-opacity="0.6"/></filter><g filter="url(#ds3)"><clipPath id="cc3"><path d="M488,264 Q512,240 536,264 L690,700 L334,700 Z"/></clipPath><g fill="#C24400"><rect x="277.0" y="690" width="470" height="78" rx="26"/></g><path d="M488,264 Q512,240 536,264 L690,700 L334,700 Z" fill="#FF8A00"/><g clip-path="url(#cc3)" fill="#fff"><rect x="0" y="395" width="1024" height="60"/><rect x="0" y="545" width="1024" height="65"/></g><linearGradient id="sh3" x1="0" x2="1"><stop offset="0" stop-color="#000" stop-opacity=".22"/><stop offset=".38" stop-color="#fff" stop-opacity=".18"/><stop offset=".55" stop-color="#fff" stop-opacity="0"/><stop offset="1" stop-color="#000" stop-opacity=".28"/></linearGradient><path d="M488,264 Q512,240 536,264 L690,700 L334,700 Z" fill="url(#sh3)"/><linearGradient id="gl3" x1="0" y1="0" x2="0" y2="1"><stop offset="0" stop-color="#fff" stop-opacity=".75"/><stop offset="1" stop-color="#fff" stop-opacity="0"/></linearGradient><path d="M478,290 Q500,262 512,262 L470,520 L430,520 Z" fill="url(#gl3)" opacity=".7"/></g></g><path d="M160,120 H864 A40,40 0 0 1 904,160 V864 A40,40 0 0 1 864,904 H160 A40,40 0 0 1 120,864 V160 A40,40 0 0 1 160,120 Z" fill="none" stroke="#fff" stroke-opacity=".18" stroke-width="6"/></g></svg>