<svg xmlns="http://www.w3.org/2000/svg" viewBox="0 0 1024 1024" width="1024" height="1024"><defs></defs><g transform="translate(0.0 0.0) scale(1.0)"><clipPath id="mask"><path d="M160,120 H864 A40,40 0 0 1 904,160 V864 A40,40 0 0 1 864,904 H160 A40,40 0 0 1 120,864 V160 A40,40 0 0 1 160,120 Z"/></clipPath><filter id="macsh" x="-20%" y="-20%" width="140%" height="140%"><feDropShadow dx="0" dy="12" stdDeviation="14" flood-color="#000" flood-opacity=".3"/></filter><path d="M160,120 H864 A40,40 0 0 1 904,160 V864 A40,40 0 0 1 864,904 H160 A40,40 0 0 1 120,864 V160 A40,40 0 0 1 160,120 Z" fill="#000" filter="url(#macsh)"/><g clip-path="url(#mask)"><filter id="wc36"><feTurbulence type="fractalNoise" baseFrequency=".012" numOctaves="3" seed="4"/><feDisplacementMap in="SourceGraphic" scale="90"/><feGaussianBlur stdDeviation="10"/></filter><rect width="1024" height="1024" fill="#FFFBF5"/><g filter="url(#wc36)" opacity=".85"><circle cx="400" cy="420" r="260" fill="#FFB36B"/><circle cx="640" cy="620" r="240" fill="#FF8FA3"/><circle cx="600" cy="360" r="170" fill="#FFD66B"/></g><clipPath id="cc36"><path d="M488,264 Q512,240 536,264 L690,700 L334,700 Z"/></clipPath><g fill="#D94E00"><rect x="277.0" y="690" width="470" height="78" rx="26"/></g><path d="M488,264 Q512,240 536,264 L690,700 L334,700 Z" fill="#FF6A00"/><g clip-path="url(#cc36)" fill="#FFFBF5"><rect x="0" y="395" width="1024" height="60"/><rect x="0" y="545" width="1024" height="65"/></g></g><path d="M160,120 H864 A40,40 0 0 1 904,160 V864 A40,40 0 0 1 864,904 H160 A40,40 0 0 1 120,864 V160 A40,40 0 0 1 160,120 Z" fill="none" stroke="#fff" stroke-opacity=".18" stroke-width="6"/></g></svg>