<svg xmlns="http://www.w3.org/2000/svg" viewBox="0 0 1024 1024" width="1024" height="1024"><defs></defs><g transform="translate(0.0 0.0) scale(1.0)"><clipPath id="mask"><path d="M160,120 H864 A40,40 0 0 1 904,160 V864 A40,40 0 0 1 864,904 H160 A40,40 0 0 1 120,864 V160 A40,40 0 0 1 160,120 Z"/></clipPath><filter id="macsh" x="-20%" y="-20%" width="140%" height="140%"><feDropShadow dx="0" dy="12" stdDeviation="14" flood-color="#000" flood-opacity=".3"/></filter><path d="M160,120 H864 A40,40 0 0 1 904,160 V864 A40,40 0 0 1 864,904 H160 A40,40 0 0 1 120,864 V160 A40,40 0 0 1 160,120 Z" fill="#000" filter="url(#macsh)"/><g clip-path="url(#mask)"><linearGradient id="b41" x1="0" y1="0" x2="0" y2="1"><stop offset="0" stop-color="#FFA531"/><stop offset="1" stop-color="#FF5B00"/></linearGradient><rect width="1024" height="1024" fill="url(#b41)"/><clipPath id="vv"><path d="M300,270 L724,270 L540,760 Q512,790 484,760 Z"/></clipPath><path d="M300,270 L724,270 L540,760 Q512,790 484,760 Z" fill="#fff"/><g clip-path="url(#vv)" fill="#FF6F00"><rect y="390" width="1024" height="60"/><rect y="530" width="1024" height="60"/></g></g><path d="M160,120 H864 A40,40 0 0 1 904,160 V864 A40,40 0 0 1 864,904 H160 A40,40 0 0 1 120,864 V160 A40,40 0 0 1 160,120 Z" fill="none" stroke="#fff" stroke-opacity=".18" stroke-width="6"/></g></svg>